# xmcd
#
# Track frame offsets:
#	150
#	11792
#	24819
#	39383
#	53226
#	71794
#	85364
#	103076
#	124420
#	138345
#	158140
#	171689
#	186798
#	213630
#
# Disc length: 3083 seconds
#
# Revision: 1
# Processed by: cddbd v1.5.2PL0 Copyright (c) Steve Scherf et al.
# Submitted via: audiograbber 1.83.01
#
DISCID=cc0c090e
DTITLE=Richie Arndt - Train Stories
DYEAR=2009
DGENRE=Blues
TTITLE0=One After 909
TTITLE1=Marrakesh Express
TTITLE2=Mystery Train
TTITLE3=California Sunsets
TTITLE4=Rock Island Line
TTITLE5=Iron, Speed and Steam
TTITLE6=Downtown Train
TTITLE7=Down There By The Train
TTITLE8=Breakneck Train
TTITLE9=That Evening Train
TTITLE10=Get On Board
TTITLE11=Aching Train
TTITLE12=Night Train
TTITLE13=Just Before I Go
EXTD=
EXTT0=
EXTT1=
EXTT2=
EXTT3=
EXTT4=
EXTT5=
EXTT6=
EXTT7=
EXTT8=
EXTT9=
EXTT10=
EXTT11=
EXTT12=
EXTT13=
PLAYORDER=
